<svg width="79" height="101" viewBox="0 0 79 101" fill="none" xmlns="http://www.w3.org/2000/svg">
<g clip-path="url(#clip0_1_350)">
<path d="M43.9904 19.3368C44.0756 17.0193 42.9402 14.7246 40.817 13.4321C38.7393 12.168 36.2415 12.1737 34.2261 13.2214C34.141 15.5389 35.2764 17.8335 37.3995 19.1261C39.4773 20.3901 41.9751 20.3844 43.9904 19.3368Z" fill="#FF4000"/>
<path d="M62.395 13.4321C60.3173 14.7019 59.1875 16.9225 59.2159 19.1887C59.2159 19.2798 59.2727 19.3596 59.3522 19.3994C61.3448 20.3845 63.7802 20.3617 65.8125 19.1261C67.9357 17.8336 69.0711 15.5389 68.9859 13.2214C66.9706 12.168 64.4671 12.168 62.395 13.4321Z" fill="#FF4000"/>
<path d="M78.8183 13.842C78.8202 13.8439 78.8232 13.8423 78.8229 13.8397C77.7922 6.77155 72.1112 1.13837 65.0575 0.159377C60.5425 -0.466442 56.3294 0.796936 53.0621 3.25936C52.2095 3.90188 51.0085 3.90159 50.1562 3.25878C47.077 0.936526 43.1581 -0.317861 38.938 0.068273C31.1493 0.780022 24.8876 7.14021 24.2632 14.9581C23.8555 20.1046 25.8525 24.7957 29.2423 28.0381C30.5789 29.3165 30.3211 32.176 28.6873 33.043C24.4354 35.2995 20.8837 38.7094 18.4535 42.8615C18.1712 43.3439 17.5187 43.4671 17.0955 43.1019L13.4423 39.9492C13.1669 39.7115 13.6128 38.8671 13.9766 38.8671C14.7543 38.8671 15.5434 38.6963 16.2928 38.349C19.0177 37.0621 20.1871 33.7938 18.9098 31.0607C17.6268 28.3275 14.3683 27.1546 11.649 28.4357C8.92412 29.7226 7.749 32.9909 9.03198 35.724C9.09475 35.8572 8.89559 36.0271 8.78411 35.9309L6.9599 34.3575C6.43195 33.902 5.63718 33.9589 5.18303 34.4884C4.72888 35.018 4.78564 35.8151 5.3136 36.2707C5.69125 36.5962 5.08472 37.8712 4.59198 37.9472C4.09768 38.0235 3.60545 38.1707 3.12798 38.3945C0.403063 39.6814 -0.766382 42.9497 0.510924 45.6771C1.44194 47.6586 3.41183 48.8202 5.4612 48.8202C6.23893 48.8202 7.02803 48.6494 7.77738 48.3021C10.5023 47.0152 11.6717 43.7469 10.3944 41.0195C10.339 40.8981 10.5087 40.7527 10.6097 40.8399L16.2347 45.6944C16.5816 45.9938 16.6972 46.4803 16.5374 46.9098C15.4908 49.7236 14.9076 52.7577 14.9076 55.932V99.7416C14.9076 100.431 15.4639 100.994 16.1565 100.994H16.4801C27.2719 100.994 37.0816 96.7465 44.3594 89.834C44.9442 89.2817 45.8809 89.4184 46.2896 90.1073L50.0818 96.5757C50.57 97.4127 49.9682 98.4604 49.0032 98.4604H42.9232C42.2363 98.4604 41.6743 99.0184 41.6743 99.7131V99.7416C41.6743 100.431 42.2306 100.994 42.9232 100.994H70.2065C70.8934 100.994 71.4554 100.436 71.4554 99.7416V99.7131C71.4554 99.0241 70.899 98.4604 70.2065 98.4604H60.9701C60.5273 98.4604 60.1186 98.227 59.8915 97.8398L51.0809 82.7792C50.8482 82.3806 50.8595 81.8852 51.0979 81.4866C51.5294 80.7749 51.9438 80.0518 52.3355 79.3172C52.4491 79.1009 52.625 78.9243 52.8464 78.8105C59.8972 75.0581 64.6998 68.4132 66.1191 60.715C66.1531 60.5271 66.2269 60.3562 66.3405 60.2082C69.7126 55.7327 71.5803 50.2323 71.5803 44.5953C71.5803 40.8198 70.7696 37.1406 69.2178 33.7638C68.695 32.6261 69.2104 31.2446 70.3168 30.6584C76.1272 27.5799 79.8628 21.0813 78.8138 13.8444C78.8135 13.8418 78.8165 13.8402 78.8183 13.842ZM12.722 30.7276C12.722 30.7289 12.7234 30.7298 12.7246 30.7292C13.4335 30.3944 14.2273 30.3549 14.9644 30.6222C15.7024 30.8898 16.2928 31.4251 16.6277 32.1368C17.3203 33.6059 16.6845 35.3653 15.2198 36.0543C13.7552 36.749 12.001 36.1112 11.3141 34.6422C10.6276 33.174 11.2566 31.4158 12.7194 30.7259C12.7206 30.7254 12.722 30.7262 12.722 30.7276ZM8.22302 44.3504C8.22132 44.3504 8.21979 44.3515 8.21921 44.3531C7.95208 45.0921 7.41888 45.6832 6.71012 46.0188C5.24547 46.7134 3.49131 46.0757 2.8044 44.6067C2.11749 43.1376 2.74763 41.3782 4.21228 40.6892C5.67692 40.0002 7.43109 40.6323 8.118 42.1013C8.45253 42.8122 8.49258 43.6083 8.22682 44.3478C8.22624 44.3494 8.22472 44.3504 8.22302 44.3504ZM52.9987 21.797C52.4432 23.0565 50.7764 23.0553 50.221 21.7958C49.4771 20.1089 49.0599 18.2466 49.0599 16.2848C49.0599 14.3224 49.4748 12.4597 50.219 10.7725C50.7745 9.51302 52.4413 9.5142 52.9968 10.7737C53.7407 12.4606 54.1578 14.3229 54.1578 16.2848C54.1578 18.2471 53.743 20.1098 52.9987 21.797ZM26.7667 15.3908C27.1924 8.68328 32.5344 3.18289 39.2105 2.58502C42.7194 2.27292 45.9821 3.30503 48.5594 5.21702C49.3771 5.82361 49.4419 6.97572 48.9124 7.84525C47.4121 10.3084 46.5394 13.195 46.5394 16.2848C46.5394 19.3738 47.4118 22.2598 48.9114 24.7226C49.4413 25.5929 49.3757 26.746 48.5567 27.3523C46.2844 29.0345 43.4804 30.0357 40.448 30.0357C32.5912 30.0357 26.2614 23.3795 26.7667 15.3908ZM53.7548 97.8512C53.7573 97.8512 53.7588 97.8484 53.7576 97.8463L47.7202 87.545C47.4534 87.0895 47.5045 86.5144 47.8394 86.1045C47.9018 86.0304 47.9586 85.9564 48.0154 85.8881C48.566 85.2048 49.6219 85.2788 50.0647 86.0361L56.2356 96.5814C56.7238 97.4184 56.122 98.4661 55.1569 98.4661H54.8277C54.3868 98.4661 53.9797 98.2347 53.752 97.8561C53.7507 97.8539 53.7523 97.8512 53.7548 97.8512ZM54.9838 73.219C54.9824 73.219 54.9814 73.2176 54.9819 73.2163C56.0032 70.1651 56.6784 66.9603 56.9565 63.6417C57.0474 62.5143 55.7246 61.8481 54.8845 62.594L54.8504 62.6224C54.612 62.8331 54.4644 63.1349 54.436 63.4538C54.0783 67.747 53.0111 71.841 51.3534 75.6161C51.0525 76.2994 50.0364 76.0773 50.0364 75.3314V68.7947C50.0364 67.804 48.9464 67.2118 48.1176 67.747L48.0949 67.7641C47.7372 67.9976 47.5158 68.3961 47.5158 68.8289V81.982C47.5158 82.2496 47.4307 82.5116 47.2774 82.7279C46.7835 83.4112 46.2669 84.0717 45.7276 84.7151C44.9782 85.6091 43.5193 85.0739 43.5193 83.9066V72.4104C43.5193 71.4937 42.5712 70.8901 41.7481 71.2773L41.7254 71.2887C41.2826 71.4937 41.0044 71.9435 41.0044 72.4275V88.8831C41.0044 89.2589 40.8398 89.6177 40.5502 89.8568C40.0393 90.2782 39.517 90.6824 38.9834 91.0753C38.1659 91.6789 37.0078 91.0753 37.0078 90.0561V74.9955C37.0078 74.1509 36.192 73.5546 35.395 73.8077C35.3879 73.8099 35.3805 73.8111 35.3731 73.8111C35.3654 73.8111 35.3578 73.8124 35.3506 73.8149C34.8343 73.9944 34.4873 74.4755 34.4873 75.0183V93.1764C34.4873 93.6433 34.2318 94.0817 33.8174 94.2924C33.3008 94.5543 32.7785 94.8049 32.2506 95.0497C31.4274 95.4255 30.4907 94.8106 30.4907 93.9052V76.6695C30.4907 75.8932 29.7879 75.3029 29.0257 75.4432C29.0184 75.4446 29.011 75.4453 29.0036 75.4453C28.9959 75.4453 28.9882 75.4461 28.9806 75.4477C28.3961 75.5716 27.9702 76.087 27.9702 76.6923V95.7729C27.9702 96.3252 27.6125 96.8205 27.0789 96.9743C26.5453 97.128 26.04 97.259 25.5121 97.3899C24.7287 97.5779 23.968 96.98 23.968 96.1714V77.5578C23.968 76.8346 23.3548 76.2652 22.6396 76.3222H22.6168C21.9583 76.3734 21.4474 76.9257 21.4474 77.5863V97.0369C21.4474 97.686 20.9535 98.2213 20.312 98.2839C19.8068 98.3352 19.2958 98.3807 18.7792 98.4092C18.0583 98.4547 17.4452 97.8796 17.4452 97.1565V56.3591C17.4452 43.9576 26.9029 33.3895 39.2445 32.6037C52.784 31.7382 64.0697 42.5397 64.0697 55.9377C64.0697 62.9698 60.9985 69.4211 55.8098 73.7941C55.4075 74.1351 54.8185 73.7215 54.9857 73.2217C54.9862 73.2204 54.9852 73.219 54.9838 73.219ZM69.0767 44.6067C69.0767 45.6251 69.0084 46.6383 68.8749 47.6401C68.6007 49.6972 65.8078 49.3716 65.1248 47.4119C62.7414 40.5731 57.5752 35.0394 50.99 32.1756C49.8078 31.6615 49.6186 29.7565 50.6209 28.9456C51.1991 28.4778 52.0346 28.4801 52.6127 28.9482C55.3957 31.2022 58.9259 32.5639 62.7754 32.5639C63.2662 32.5639 63.7525 32.5367 64.2328 32.4886C65.0468 32.4072 65.8635 32.7545 66.2534 33.4737C68.0976 36.8758 69.0767 40.679 69.0767 44.601V44.6067ZM64.0129 29.9788C60.5053 30.2908 57.2437 29.2595 54.6668 27.3522C53.8478 26.7461 53.7822 25.5929 54.3123 24.7227C55.8117 22.2612 56.684 19.3784 56.684 16.2848C56.684 13.1903 55.8113 10.3069 54.3111 7.84494C53.7814 6.9756 53.8462 5.82362 54.6639 5.21727C56.9367 3.53199 59.7418 2.53377 62.7754 2.53377C70.6322 2.53377 76.962 9.19574 76.4567 17.1787C76.031 23.8862 70.689 29.3866 64.0129 29.9788Z" fill="#FF4000"/>
</g>
<defs>
<clipPath id="clip0_1_350">
<rect width="79" height="101" fill="white"/>
</clipPath>
</defs>
</svg>
